<svg width="20" height="24" viewBox="0 0 20 24" fill="none" xmlns="http://www.w3.org/2000/svg">
<path d="M10 0C7.3488 0.00294898 4.80708 0.997261 2.93239 2.76482C1.05771 4.53238 0.00313834 6.92886 1.0639e-05 9.42857C-0.00316471 11.4713 0.704538 13.4587 2.01455 15.0857C2.01455 15.0857 2.28728 15.4243 2.33183 15.4731L10 24L17.6718 15.4689C17.7118 15.4234 17.9854 15.0857 17.9854 15.0857L17.9864 15.0831C19.2957 13.4568 20.0031 11.4704 20 9.42857C19.9969 6.92886 18.9423 4.53238 17.0676 2.76482C15.1929 0.997261 12.6512 0.00294898 10 0ZM10 12.8571C9.2808 12.8571 8.57774 12.6561 7.97975 12.2793C7.38175 11.9026 6.91567 11.3671 6.64044 10.7406C6.36521 10.1141 6.2932 9.42477 6.43351 8.75969C6.57382 8.09461 6.92015 7.4837 7.42871 7.00421C7.93726 6.52471 8.5852 6.19817 9.29058 6.06588C9.99597 5.93359 10.7271 6.00148 11.3916 6.26098C12.056 6.52048 12.624 6.95993 13.0235 7.52376C13.4231 8.08759 13.6364 8.75046 13.6364 9.42857C13.6352 10.3375 13.2517 11.2089 12.57 11.8517C11.8883 12.4944 10.9641 12.856 10 12.8571Z" fill="#FAB814"/>
</svg>
