<svg width="24" height="24" viewBox="0 0 24 24" fill="none" xmlns="http://www.w3.org/2000/svg">
<path fill-rule="evenodd" clip-rule="evenodd" d="M21 8.77211L14.0208 1.79293C12.8492 0.621353 10.9497 0.621352 9.77817 1.79293L3 8.5711V23.0858H10V17.0858C10 15.9812 10.8954 15.0858 12 15.0858C13.1046 15.0858 14 15.9812 14 17.0858V23.0858H21V8.77211ZM11.1924 3.20714L5 9.39953V21.0858H8V17.0858C8 14.8766 9.79086 13.0858 12 13.0858C14.2091 13.0858 16 14.8766 16 17.0858V21.0858H19V9.60054L12.6066 3.20714C12.2161 2.81661 11.5829 2.81661 11.1924 3.20714Z" fill="#B3561B"/>
</svg>
