<svg width="24" height="20" viewBox="0 0 24 20" fill="none" xmlns="http://www.w3.org/2000/svg">
<path fill-rule="evenodd" clip-rule="evenodd" d="M0.501915 2.11898C0.501915 1.41263 1.07452 0.840027 1.78087 0.840027H22.2316C22.938 0.840027 23.5106 1.41263 23.5106 2.11898V16.6021C23.5106 18.0148 22.3654 19.16 20.9527 19.16H3.04733C1.63464 19.16 0.489426 18.0148 0.489426 16.6021V2.53364C0.489426 2.47274 0.493683 2.41283 0.501915 2.35419V2.11898ZM3.04733 4.96306V16.6021H20.9527V4.9635L14.7133 11.2029C13.2149 12.7013 10.7855 12.7013 9.28715 11.2029L3.04733 4.96306ZM5.05826 3.35656H18.9422L12.9046 9.39417C12.4051 9.89363 11.5953 9.89363 11.0959 9.39417L5.05826 3.35656Z" fill="#4F4F4F"/>
</svg>
